# Blender v2.69 (sub 0) OBJ File: 'axis_arrows.blend'
# www.blender.org
v -0.012500 0.030001 0.012345
v -0.012500 0.030001 -0.012655
v 0.012500 0.030001 -0.012655
v 0.012500 0.030001 0.012345
v -0.012500 0.236919 0.012345
v -0.012500 0.236919 -0.012655
v 0.012500 0.236919 -0.012655
v 0.012500 0.236919 0.012345
v 0.012500 0.012500 0.030009
v 0.012500 0.012500 0.230448
v -0.012500 0.012500 0.230448
v -0.012500 0.012500 0.030009
v 0.012500 -0.012500 0.030009
v 0.012500 -0.012500 0.230448
v -0.012500 -0.012500 0.230448
v -0.012500 -0.012500 0.030009
v 0.030073 -0.012500 0.012345
v 0.030073 -0.012500 -0.012655
v 0.225049 -0.012500 -0.012655
v 0.225049 -0.012500 0.012345
v 0.030073 0.012500 0.012345
v 0.030073 0.012500 -0.012655
v 0.225049 0.012500 -0.012655
v 0.225049 0.012500 0.012345
v 0.225000 -0.025000 0.024845
v 0.225000 -0.025000 -0.025155
v 0.275000 -0.002500 -0.002655
v 0.275000 -0.002500 0.002345
v 0.225000 0.025000 0.024845
v 0.225000 0.025000 -0.025155
v 0.275000 0.002500 -0.002655
v 0.275000 0.002500 0.002345
v 0.025000 0.025000 0.223537
v 0.002500 0.002500 0.273537
v -0.002500 0.002500 0.273537
v -0.025000 0.025000 0.223537
v 0.025000 -0.025000 0.223537
v 0.002500 -0.002500 0.273537
v -0.002500 -0.002500 0.273537
v -0.025000 -0.025000 0.223537
v -0.025000 0.225000 0.024845
v -0.025000 0.225000 -0.025155
v 0.025000 0.225000 -0.025155
v 0.025000 0.225000 0.024845
v -0.002500 0.275000 0.002345
v -0.002500 0.275000 -0.002655
v 0.002500 0.275000 -0.002655
v 0.002500 0.275000 0.002345
vt 0.000000 0.000000
vt 1.000000 0.000000
vt 0.000000 1.000000
vt 1.000000 1.000000
vn -1.000000 0.000000 0.000000
vn 0.000000 0.000000 -1.000000
vn 1.000000 0.000000 0.000000
vn 0.000000 0.000000 1.000000
vn 0.000000 -1.000000 0.000000
vn 0.000000 1.000000 0.000000
vn 0.410365 0.000000 -0.911921
vn 0.410365 0.000000 0.911921
vn 0.410365 -0.911921 0.000000
vn 0.410365 0.911921 0.000000
vn -0.911922 0.000000 -0.410365
vn 0.911922 0.000000 -0.410364
vn 0.000000 -0.911922 -0.410365
vn 0.000000 0.911922 -0.410365
vn -0.911922 0.410365 0.000000
vn 0.000000 0.410364 -0.911922
vn 0.911922 0.410365 0.000000
vn 0.000000 0.410364 0.911922
vn -0.911922 0.000000 -0.410364
vn 0.911922 0.000000 -0.410365
vn -0.911921 0.410365 0.000000
vn 0.000000 0.410365 -0.911921
vn 0.911921 0.410365 0.000000
vn 0.000000 0.410365 0.911921
s off
f 5/1/1 6/2/1 1/3/1
f 6/1/2 7/2/2 2/3/2
f 7/1/3 8/2/3 3/3/3
f 8/1/4 5/2/4 4/3/4
f 1/1/5 2/2/5 4/3/5
f 8/1/6 7/2/6 5/3/6
f 13/1/1 14/2/1 9/3/1
f 14/1/2 15/2/2 10/3/2
f 15/1/3 16/2/3 11/3/3
f 16/1/4 13/2/4 12/3/4
f 9/1/5 10/2/5 12/3/5
f 16/1/6 15/2/6 13/3/6
f 21/1/1 22/2/1 17/3/1
f 22/1/2 23/2/2 18/3/2
f 23/1/3 24/2/3 19/3/3
f 24/1/4 21/2/4 20/3/4
f 17/1/5 18/2/5 20/3/5
f 24/1/6 23/2/6 21/3/6
f 29/1/1 30/2/1 25/3/1
f 30/1/7 31/2/7 26/3/7
f 31/1/3 32/2/3 27/3/3
f 32/1/8 29/2/8 28/3/8
f 25/1/9 26/2/9 28/3/9
f 32/1/10 31/2/10 29/3/10
f 37/1/11 38/2/11 33/3/11
f 38/1/2 39/2/2 34/3/2
f 39/1/12 40/2/12 35/3/12
f 40/1/4 37/2/4 36/3/4
f 33/1/13 34/2/13 36/3/13
f 40/1/14 39/2/14 37/3/14
f 45/1/15 46/2/15 41/3/15
f 46/1/16 47/2/16 42/3/16
f 47/1/17 48/2/17 43/3/17
f 48/1/18 45/2/18 44/3/18
f 41/1/5 42/2/5 44/3/5
f 48/1/6 47/2/6 45/3/6
f 6/2/1 2/4/1 1/3/1
f 7/2/2 3/4/2 2/3/2
f 8/2/3 4/4/3 3/3/3
f 5/2/4 1/4/4 4/3/4
f 2/2/5 3/4/5 4/3/5
f 7/2/6 6/4/6 5/3/6
f 14/2/1 10/4/1 9/3/1
f 15/2/2 11/4/2 10/3/2
f 16/2/3 12/4/3 11/3/3
f 13/2/4 9/4/4 12/3/4
f 10/2/5 11/4/5 12/3/5
f 15/2/6 14/4/6 13/3/6
f 22/2/1 18/4/1 17/3/1
f 23/2/2 19/4/2 18/3/2
f 24/2/3 20/4/3 19/3/3
f 21/2/4 17/4/4 20/3/4
f 18/2/5 19/4/5 20/3/5
f 23/2/6 22/4/6 21/3/6
f 30/2/1 26/4/1 25/3/1
f 31/2/7 27/4/7 26/3/7
f 32/2/3 28/4/3 27/3/3
f 29/2/8 25/4/8 28/3/8
f 26/2/9 27/4/9 28/3/9
f 31/2/10 30/4/10 29/3/10
f 38/2/19 34/4/19 33/3/19
f 39/2/2 35/4/2 34/3/2
f 40/2/20 36/4/20 35/3/20
f 37/2/4 33/4/4 36/3/4
f 34/2/13 35/4/13 36/3/13
f 39/2/14 38/4/14 37/3/14
f 46/2/21 42/4/21 41/3/21
f 47/2/22 43/4/22 42/3/22
f 48/2/23 44/4/23 43/3/23
f 45/2/24 41/4/24 44/3/24
f 42/2/5 43/4/5 44/3/5
f 47/2/6 46/4/6 45/3/6
